<?xml version="1.0" encoding="UTF-8" standalone="no"?>
<svg
   xmlns:dc="http://purl.org/dc/elements/1.1/"
   xmlns:cc="http://creativecommons.org/ns#"
   xmlns:rdf="http://www.w3.org/1999/02/22-rdf-syntax-ns#"
   xmlns:svg="http://www.w3.org/2000/svg"
   xmlns="http://www.w3.org/2000/svg"
   xmlns:sodipodi="http://sodipodi.sourceforge.net/DTD/sodipodi-0.dtd"
   xmlns:inkscape="http://www.inkscape.org/namespaces/inkscape"
   inkscape:version="1.1-dev (ce96f98, 2020-04-08)"
   sodipodi:docname="house-key.svg"
   id="svg18"
   preserveAspectRatio="xMidYMid meet"
   viewBox="0 0 1644.000000 1011.000000"
   height="1011.000000pt"
   width="1644.000000pt"
   version="1.0">
  <defs
     id="defs22" />
  <sodipodi:namedview
     inkscape:current-layer="svg18"
     inkscape:window-maximized="0"
     inkscape:window-y="23"
     inkscape:window-x="0"
     inkscape:cy="610.05834"
     inkscape:cx="1000.0875"
     inkscape:zoom="0.5004562"
     showgrid="false"
     id="namedview20"
     inkscape:window-height="1001"
     inkscape:window-width="1792"
     inkscape:pageshadow="2"
     inkscape:pageopacity="0"
     guidetolerance="10"
     gridtolerance="10"
     objecttolerance="10"
     borderopacity="1"
     bordercolor="#666666"
     pagecolor="#ffffff" />
  <metadata
     id="metadata10">
Created by potrace 1.15, written by Peter Selinger 2001-2017
<rdf:RDF>
  <cc:Work
     rdf:about="">
    <dc:format>image/svg+xml</dc:format>
    <dc:type
       rdf:resource="http://purl.org/dc/dcmitype/StillImage" />
  </cc:Work>
</rdf:RDF>
</metadata>
  <g
     id="g16"
     stroke="none"
     fill="#000000"
     transform="matrix(8.1106705e-4,0.06429593,0.06764155,-7.7095083e-4,241.58837,9.8043615)">
    <path
       id="path12"
       d="m 3160,9570 c -284,-24 -627,-102 -914,-209 -109,-41 -385,-174 -483,-234 -144,-88 -192,-120 -208,-137 -10,-11 -22,-20 -28,-20 -37,0 -431,-357 -552,-500 -92,-109 -218,-278 -260,-348 -6,-9 -27,-44 -49,-76 -21,-33 -41,-67 -44,-75 -3,-9 -22,-45 -43,-81 -142,-252 -267,-641 -311,-967 -25,-186 -29,-521 -9,-698 28,-247 33,-285 56,-395 55,-263 96,-403 181,-618 149,-378 367,-715 642,-995 237,-241 492,-426 787,-571 219,-107 251,-121 465,-193 228,-77 603,-150 895,-173 202,-17 527,7 830,61 193,34 379,82 516,132 52,19 108,39 124,45 142,50 393,180 550,285 255,171 457,362 690,652 22,27 45,57 50,66 6,9 38,57 72,107 84,125 179,287 234,402 63,134 81,165 101,183 19,16 134,17 2113,17 1795,0 2094,-2 2104,-14 9,-11 12,-220 11,-842 0,-761 1,-828 16,-845 16,-18 53,-19 931,-19 611,0 921,3 934,10 18,10 19,28 19,594 0,562 1,584 19,600 17,15 37,17 149,14 90,-2 134,-7 145,-17 15,-12 17,-67 17,-597 0,-566 1,-584 19,-594 30,-16 1823,-14 1839,2 9,9 12,211 12,846 0,555 3,840 10,853 10,18 25,19 333,19 185,0 328,4 337,10 13,8 15,145 17,1121 2,727 -1,1118 -8,1130 -9,19 -123,19 -4515,19 -3071,0 -4511,3 -4525,10 -21,12 -49,60 -49,85 0,9 -9,35 -20,57 -11,23 -20,46 -20,51 0,24 -160,349 -186,378 -8,8 -14,19 -14,23 0,11 -85,141 -148,226 -158,212 -311,371 -517,534 -105,83 -215,157 -370,249 -26,15 -218,109 -340,167 -46,22 -287,106 -360,126 -173,47 -310,77 -455,100 -91,14 -192,30 -225,35 -83,13 -450,19 -565,9 z m 445,-325 c 309,-34 497,-69 700,-128 133,-39 324,-106 370,-130 17,-9 73,-37 126,-62 369,-177 678,-430 921,-754 48,-64 95,-130 105,-148 120,-213 143,-255 143,-259 0,-3 13,-33 30,-67 39,-83 105,-262 134,-370 14,-49 32,-97 42,-108 17,-19 105,-19 4480,-19 4044,0 4464,-1 4478,-16 14,-14 16,-100 16,-803 0,-668 -2,-790 -14,-800 -10,-9 -100,-12 -323,-11 -265,0 -311,-2 -330,-15 l -23,-16 v -845 -844 l -26,-10 c -15,-6 -250,-10 -599,-10 -510,0 -575,2 -589,16 -15,14 -16,79 -16,593 0,318 -2,585 -6,594 -5,15 -50,17 -462,19 -298,2 -463,-1 -476,-7 -21,-10 -21,-16 -24,-598 l -2,-587 -24,-15 c -20,-14 -96,-15 -614,-13 -404,2 -594,6 -602,14 -7,7 -10,263 -10,840 0,704 -2,833 -14,849 -14,20 -45,20 -2374,23 l -2359,2 -24,-24 c -13,-13 -40,-62 -58,-107 -44,-108 -205,-426 -255,-504 -84,-131 -113,-173 -170,-250 -171,-229 -436,-484 -625,-600 -9,-5 -29,-19 -46,-31 -37,-25 -190,-110 -265,-146 -289,-139 -624,-229 -1040,-280 -135,-16 -517,-16 -640,0 -179,24 -415,73 -570,119 -85,25 -162,49 -172,54 -9,5 -49,21 -90,35 -64,24 -320,145 -373,177 -425,261 -700,529 -932,910 -55,91 -163,297 -163,311 0,4 -10,29 -23,55 -37,73 -122,333 -156,476 -104,436 -120,945 -42,1310 96,451 319,880 639,1235 68,75 225,228 293,285 67,57 255,190 339,239 52,31 102,61 110,66 86,55 497,230 539,230 6,0 37,9 68,19 128,43 411,94 608,110 157,13 250,12 390,-4 z" />
    <path
       id="path14"
       d="m 3265,8089 c -293,-28 -496,-94 -735,-238 -168,-102 -354,-271 -462,-421 -26,-36 -56,-77 -68,-92 -21,-28 -113,-204 -143,-274 -37,-87 -66,-186 -93,-315 -26,-122 -28,-152 -28,-329 1,-173 4,-208 28,-315 27,-122 57,-226 81,-280 7,-16 21,-50 31,-75 47,-119 171,-309 281,-432 145,-161 290,-272 497,-379 388,-200 857,-232 1281,-87 104,35 266,110 312,144 17,13 35,24 39,24 13,0 141,96 219,166 152,135 275,296 368,480 80,159 92,189 126,315 131,492 48,981 -236,1399 -94,139 -246,297 -357,373 -22,15 -48,34 -56,42 -19,17 -180,115 -189,115 -3,0 -27,11 -52,24 -216,115 -574,181 -844,155 z m 346,-334 c 411,-62 795,-345 985,-725 79,-159 120,-307 135,-487 27,-313 -49,-604 -224,-865 -93,-139 -186,-232 -377,-377 -84,-63 -327,-163 -455,-187 -335,-62 -635,-18 -914,133 -110,60 -140,80 -237,163 -299,256 -468,626 -467,1020 1,305 104,603 284,825 104,128 262,271 354,321 11,6 49,27 85,46 109,60 300,123 415,137 114,14 313,12 416,-4 z" />
  </g>
  <path
     id="path24"
     d="m 489.29794,210.43205 c 3.33935,-30.88682 14.84303,-64.19194 29.61328,-85.73545 19.39131,-28.283678 41.69731,-47.517683 71.35811,-61.530626 30.22425,-14.279154 57.35555,-20.270758 94.07791,-20.775935 23.47279,-0.322904 33.35033,0.92906 52.64628,6.672848 30.0116,8.933489 52.62279,22.305208 76.78181,45.406922 33.79432,32.315341 53.16961,74.652041 55.44767,121.158371 1.53314,31.29822 -6.41308,68.01305 -20.83145,96.25025 -15.37778,30.11626 -37.43468,53.25312 -66.17486,69.41508 -11.6784,6.56731 -20.39618,10.32587 -35.49271,15.3023 -6.48692,2.13834 -12.11803,4.20292 -12.51356,4.58795 -0.39554,0.38503 0.68182,129.84391 2.39413,287.68635 1.71232,157.84246 2.73773,287.35189 2.27868,287.79873 -1.09005,1.06102 -105.65824,2.25142 -106.77625,1.21706 -0.47015,-0.43564 -1.0889,-9.31881 -1.37497,-19.7402 -0.28606,-10.42139 -0.75676,-19.92112 -1.04599,-21.11038 l -0.52589,-2.16237 -57.61276,0.65663 -57.61275,0.65672 -0.74858,-7.36464 c -0.94339,-9.28103 -1.43814,-63.41637 -0.61514,-67.30649 l 0.61311,-2.89807 39.68907,-0.93421 c 21.82898,-0.51381 40.06411,-1.29949 40.52249,-1.74586 1.08934,-1.06091 0.34525,-59.98519 -0.77081,-61.0241 -0.46999,-0.43763 -18.71666,-0.80888 -40.54819,-0.82507 l -39.69368,-0.0295 -0.76646,-3.84606 c -0.99329,-4.98432 -1.39045,-30.4539 -0.86014,-55.1619 l 0.41896,-19.51969 47.22943,-0.54312 c 51.3108,-0.59062 66.60954,-1.31363 67.33766,-3.18395 0.25238,-0.64828 -0.0629,-69.08485 -0.70052,-152.08118 -0.93775,-122.0552 -1.41117,-151.18392 -2.47648,-152.3747 -0.7244,-0.80971 -9.63123,-5.21472 -19.79297,-9.78888 -65.36536,-29.4233 -97.85335,-69.07845 -110.78834,-135.22936 -2.59045,-13.24778 -3.97437,-39.98476 -2.6863,-51.89849 z m 80.42175,40.24814 c 5.66938,19.05768 14.42594,33.61423 28.35373,47.13406 19.84392,19.26264 44.08471,30.0594 72.49272,32.28794 42.82742,3.35972 84.55764,-17.17178 106.14665,-52.22476 22.0336,-35.77483 20.49844,-80.92954 -3.91029,-115.01605 -6.07361,-8.48171 -19.01072,-21.09194 -27.9183,-27.21285 -9.15085,-6.28809 -25.91405,-13.5983 -38.2804,-16.69361 -9.41222,-2.35587 -11.56884,-2.52974 -28.92397,-2.33194 -17.37792,0.19806 -19.48484,0.41703 -28.72552,2.9856 -41.61959,11.56861 -72.08237,42.70423 -80.80173,82.58636 -2.53025,11.57328 -1.69122,37.53233 1.56711,48.48525 z"
     style="fill:#ffcc00;stroke:none;stroke-width:0.988386" />
</svg>
